<svg xmlns:dc="http://purl.org/dc/elements/1.1/" xmlns:cc="http://creativecommons.org/ns#" xmlns:rdf="http://www.w3.org/1999/02/22-rdf-syntax-ns#" xmlns:svg="http://www.w3.org/2000/svg" xmlns="http://www.w3.org/2000/svg" xmlns:sodipodi="http://sodipodi.sourceforge.net/DTD/sodipodi-0.dtd" xmlns:inkscape="http://www.inkscape.org/namespaces/inkscape" version="1.1" xml:space="preserve" viewBox="0 0 32 40" x="0px" y="0px"><g><path style="color:#000000;font-style:normal;font-variant:normal;font-weight:normal;font-stretch:normal;font-size:medium;line-height:normal;font-family:sans-serif;font-variant-ligatures:normal;font-variant-position:normal;font-variant-caps:normal;font-variant-numeric:normal;font-variant-alternates:normal;font-feature-settings:normal;text-indent:0;text-align:start;text-decoration:none;text-decoration-line:none;text-decoration-style:solid;text-decoration-color:#000000;letter-spacing:normal;word-spacing:normal;text-transform:none;writing-mode:lr-tb;direction:ltr;text-orientation:mixed;dominant-baseline:auto;baseline-shift:baseline;text-anchor:start;white-space:normal;shape-padding:0;clip-rule:nonzero;display:inline;overflow:visible;visibility:visible;opacity:1;isolation:auto;mix-blend-mode:normal;color-interpolation:sRGB;color-interpolation-filters:linearRGB;solid-color:#000000;solid-opacity:1;vector-effect:none;fill:#000000;fill-opacity:1;fill-rule:nonzero;stroke:none;stroke-width:2;stroke-linecap:round;stroke-linejoin:round;stroke-miterlimit:4;stroke-dasharray:none;stroke-dashoffset:0;stroke-opacity:1;paint-order:normal;color-rendering:auto;image-rendering:auto;shape-rendering:auto;text-rendering:auto;enable-background:accumulate" d="m 16.000749,1.9999415 c -0.5047,0 -1.0096,0.33751 -1.0001,1.01367 v 3.03711 c -4.715,0.47063 -8.4779005,4.2346345 -8.9496005,8.9492145 h -3.0372 c -0.5638,-0.008 -1.0224,0.45213 -1.0137,1.00977 0.01,0.55763 0.4622,0.99778 1.0137,0.99023 h 3.0372 c 0.4717,4.71457 4.2346005,8.47859 8.9496005,8.94922 v 3.03711 c -0.01,0.56377 0.4503,1.02238 1.0079,1.01367 0.5576,-0.009 0.9998,-0.46214 0.9922,-1.01367 v -3.03711 c 4.7142,-0.47145 8.4782,-4.23523 8.9496,-8.94922 h 3.0354 c 1.3523,0.0191 1.3523,-2.01914 0,-2 h -3.0354 c -0.4714,-4.714 -4.2354,-8.4777645 -8.9496,-8.9492145 v -3.03711 c 0.01,-0.67616 -0.4952,-1.01367 -1,-1.01367 z m -1.0001,6.06836 v 2.9179645 c -0.01,0.56377 0.4503,1.02238 1.0079,1.01367 0.5576,-0.009 0.9998,-0.46214 0.9922,-1.01367 V 8.0683015 c 3.6263,0.44978 6.4822,3.3055445 6.932,6.9316345 h -2.9181 c -0.5638,-0.008 -1.0224,0.45213 -1.0137,1.00977 0.01,0.55763 0.4622,0.99778 1.0137,0.99023 h 2.9181 c -0.4498,3.62608 -3.3057,6.48186 -6.932,6.93164 v -2.91797 c 0.019,-1.35232 -2.0192,-1.35232 -2.0001,0 v 2.91797 c -3.6261,-0.44978 -6.4821005,-3.30556 -6.9319005,-6.93164 h 2.9162005 c 1.3523,0.0191 1.3523,-2.01914 0,-2 H 8.0687485 c 0.4498,-3.62609 3.3058005,-6.4818545 6.9319005,-6.9316345 z"/></g><text x="0" y="47" fill="#000000" font-size="5px" font-weight="bold" font-family="'Helvetica Neue', Helvetica, Arial-Unicode, Arial, Sans-serif">Created by Ranah Pixel Studio</text><text x="0" y="52" fill="#000000" font-size="5px" font-weight="bold" font-family="'Helvetica Neue', Helvetica, Arial-Unicode, Arial, Sans-serif">from the Noun Project</text></svg>